<svg height="480pt" viewBox="-16 0 480 480" width="480pt" xmlns="http://www.w3.org/2000/svg"><path d="m216.007812 368h16v16h-16zm0 0"/><path d="m216.007812 0v16h-8c-4.417968 0-8 3.582031-8 8v32c-4.417968 0-8 3.582031-8 8v48h-24c-17.671874 0-32 14.328125-32 32v48c0 17.671875 14.328126 32 32 32h23.816407c1.054687 83.46875-12.417969 166.484375-39.816407 245.335938-.863281 2.441406-.488281 5.148437 1 7.265624 1.488282 2.117188 3.90625 3.382813 6.496094 3.398438h128.503906c2.597657 0 5.03125-1.261719 6.53125-3.378906 1.5-2.121094 1.878907-4.835938 1.011719-7.285156-27.398437-78.851563-40.878906-161.867188-39.847656-245.335938h24.304687c17.671876 0 32-14.328125 32-32v-48c0-17.671875-14.328124-32-32-32h-24v-48c0-4.417969-3.582031-8-8-8v-32c0-4.417969-3.582031-8-8-8h-8v-16zm0 32h16v24h-16zm60.800782 432h-44.800782v-64h-16v64h-45.296874c25.507812-77.410156 38.046874-158.503906 37.105468-240h31.878906c-.9375 81.5 11.601563 162.589844 37.113282 240zm3.199218-256h-112c-8.835937 0-16-7.164062-16-16h144c0 8.835938-7.164062 16-16 16zm16-32h-144v-16h144zm-16-48c8.835938 0 16 7.164062 16 16h-144c0-8.835938 7.164063-16 16-16zm-40-56v40h-32v-40zm0 0"/><path d="m288.007812 280v8c0 4.417969 3.582032 8 8 8h144c4.417969 0 8-3.582031 8-8v-8c.605469-8.65625-2.570312-17.152344-8.710937-23.289062-6.136719-6.140626-14.628906-9.316407-23.289063-8.710938h-2.480468c-7.269532-16.136719-22.222656-24-45.519532-24-21.847656 0-39.023437 9.222656-45.695312 24h-2.304688c-8.542968-.191406-16.796874 3.117188-22.839843 9.160156-6.042969 6.042969-9.351563 14.296875-9.160157 22.839844zm32-16h8c3.714844 0 6.945313-2.558594 7.792969-6.175781 3.0625-13.160157 19.261719-17.824219 32.207031-17.824219 23.417969 0 29.390626 8.800781 32.359376 18.398438 1.050781 3.335937 4.144531 5.605468 7.640624 5.601562h8c4.386719-.546875 8.785157.960938 11.910157 4.089844 3.128906 3.125 4.636719 7.523437 4.089843 11.910156h-128c-.199218-4.300781 1.421876-8.488281 4.464844-11.535156 3.046875-3.042969 7.234375-4.664063 11.535156-4.464844zm0 0"/><path d="m128.007812 48h-2.480468c-7.269532-16.136719-22.222656-24-45.519532-24-21.847656 0-39.023437 9.222656-45.695312 24h-2.304688c-8.542968-.191406-16.796874 3.117188-22.839843 9.160156-6.042969 6.042969-9.351563 14.296875-9.1601565 22.839844v8c0 4.417969 3.5820315 8 7.9999995 8h144c4.417969 0 8-3.582031 8-8v-8c.605469-8.65625-2.570312-17.152344-8.710937-23.289062-6.136719-6.140626-14.628906-9.316407-23.289063-8.710938zm-112 32c-.199218-4.300781 1.421876-8.488281 4.464844-11.535156 3.046875-3.042969 7.234375-4.664063 11.535156-4.464844h8c3.714844 0 6.945313-2.558594 7.792969-6.175781 3.0625-13.160157 19.261719-17.824219 32.207031-17.824219 23.417969 0 29.390626 8.800781 32.359376 18.398438 1.050781 3.335937 4.144531 5.605468 7.640624 5.601562h8c4.386719-.546875 8.785157.960938 11.910157 4.089844 3.128906 3.125 4.636719 7.523437 4.089843 11.910156zm0 0"/></svg>